<mxfile host="app.diagrams.net" agent="Mozilla/5.0 (Macintosh; Intel Mac OS X 10_15_7) AppleWebKit/537.36 (KHTML, like Gecko) Chrome/136.0.0.0 Safari/537.36" version="27.0.6">
  <diagram name="Pagina-1" id="gdeGimot26Ob-Wy06gxM">
    <mxGraphModel dx="1892" dy="1288" grid="1" gridSize="10" guides="1" tooltips="1" connect="1" arrows="1" fold="1" page="1" pageScale="1" pageWidth="827" pageHeight="1169" math="0" shadow="0">
      <root>
        <mxCell id="0" />
        <mxCell id="1" parent="0" />
        <mxCell id="mvPRQSf64imPqvwauddo-47" value="" style="edgeStyle=orthogonalEdgeStyle;rounded=0;orthogonalLoop=1;jettySize=auto;html=1;endArrow=none;startFill=0;" edge="1" parent="1" source="mvPRQSf64imPqvwauddo-48" target="mvPRQSf64imPqvwauddo-51">
          <mxGeometry relative="1" as="geometry" />
        </mxCell>
        <mxCell id="mvPRQSf64imPqvwauddo-48" value="" style="ellipse;whiteSpace=wrap;html=1;aspect=fixed;fillColor=#F2FF3D;" vertex="1" parent="1">
          <mxGeometry x="253" y="580" width="14" height="14" as="geometry" />
        </mxCell>
        <mxCell id="mvPRQSf64imPqvwauddo-49" value="Id_Encounter&lt;div&gt;&amp;nbsp;+&lt;div&gt;Code_Careplan&amp;nbsp;&lt;/div&gt;&lt;div&gt;&lt;span style=&quot;background-color: transparent; color: light-dark(rgb(0, 0, 0), rgb(255, 255, 255));&quot;&gt;+&lt;/span&gt;&lt;/div&gt;&lt;div&gt;Code_Condition&lt;/div&gt;&lt;/div&gt;" style="text;html=1;align=center;verticalAlign=middle;resizable=0;points=[];autosize=1;strokeColor=none;fillColor=none;" vertex="1" parent="1">
          <mxGeometry x="205" y="490" width="110" height="90" as="geometry" />
        </mxCell>
        <mxCell id="mvPRQSf64imPqvwauddo-50" style="edgeStyle=orthogonalEdgeStyle;rounded=0;orthogonalLoop=1;jettySize=auto;html=1;exitX=1;exitY=1;exitDx=0;exitDy=0;entryX=0;entryY=0.5;entryDx=0;entryDy=0;curved=1;endArrow=none;startFill=0;endFill=1;" edge="1" parent="1" source="mvPRQSf64imPqvwauddo-51" target="mvPRQSf64imPqvwauddo-73">
          <mxGeometry relative="1" as="geometry">
            <Array as="points">
              <mxPoint x="465" y="600" />
              <mxPoint x="523" y="600" />
            </Array>
          </mxGeometry>
        </mxCell>
        <mxCell id="mvPRQSf64imPqvwauddo-51" value="" style="ellipse;whiteSpace=wrap;html=1;aspect=fixed;fillColor=#FFFFFF;" vertex="1" parent="1">
          <mxGeometry x="453" y="580" width="14" height="14" as="geometry" />
        </mxCell>
        <mxCell id="mvPRQSf64imPqvwauddo-52" style="edgeStyle=orthogonalEdgeStyle;rounded=0;orthogonalLoop=1;jettySize=auto;html=1;exitX=0.5;exitY=0;exitDx=0;exitDy=0;entryX=1;entryY=1;entryDx=0;entryDy=0;endArrow=none;startFill=0;curved=1;" edge="1" parent="1" source="mvPRQSf64imPqvwauddo-53" target="mvPRQSf64imPqvwauddo-48">
          <mxGeometry relative="1" as="geometry" />
        </mxCell>
        <mxCell id="mvPRQSf64imPqvwauddo-53" value="" style="ellipse;whiteSpace=wrap;html=1;aspect=fixed;fillColor=#FFFFFF;" vertex="1" parent="1">
          <mxGeometry x="273" y="630" width="14" height="14" as="geometry" />
        </mxCell>
        <mxCell id="mvPRQSf64imPqvwauddo-54" style="edgeStyle=orthogonalEdgeStyle;rounded=0;orthogonalLoop=1;jettySize=auto;html=1;exitX=0.5;exitY=0;exitDx=0;exitDy=0;entryX=0;entryY=1;entryDx=0;entryDy=0;curved=1;endArrow=none;startFill=0;" edge="1" parent="1" source="mvPRQSf64imPqvwauddo-55" target="mvPRQSf64imPqvwauddo-48">
          <mxGeometry relative="1" as="geometry" />
        </mxCell>
        <mxCell id="mvPRQSf64imPqvwauddo-55" value="" style="ellipse;whiteSpace=wrap;html=1;aspect=fixed;fillColor=#FFFFFF;" vertex="1" parent="1">
          <mxGeometry x="233" y="630" width="14" height="14" as="geometry" />
        </mxCell>
        <mxCell id="mvPRQSf64imPqvwauddo-56" value="Start" style="text;html=1;align=center;verticalAlign=middle;resizable=0;points=[];autosize=1;strokeColor=none;fillColor=none;" vertex="1" parent="1">
          <mxGeometry x="208" y="638" width="50" height="30" as="geometry" />
        </mxCell>
        <mxCell id="mvPRQSf64imPqvwauddo-57" value="Stop" style="text;html=1;align=center;verticalAlign=middle;resizable=0;points=[];autosize=1;strokeColor=none;fillColor=none;" vertex="1" parent="1">
          <mxGeometry x="273" y="638" width="50" height="30" as="geometry" />
        </mxCell>
        <mxCell id="mvPRQSf64imPqvwauddo-58" style="edgeStyle=orthogonalEdgeStyle;rounded=0;orthogonalLoop=1;jettySize=auto;html=1;exitX=1;exitY=0.5;exitDx=0;exitDy=0;entryX=0;entryY=0.5;entryDx=0;entryDy=0;endArrow=none;startFill=0;" edge="1" parent="1" source="mvPRQSf64imPqvwauddo-59" target="mvPRQSf64imPqvwauddo-48">
          <mxGeometry relative="1" as="geometry" />
        </mxCell>
        <mxCell id="mvPRQSf64imPqvwauddo-59" value="" style="ellipse;whiteSpace=wrap;html=1;aspect=fixed;fillColor=#FFFFFF;" vertex="1" parent="1">
          <mxGeometry x="163" y="580" width="14" height="14" as="geometry" />
        </mxCell>
        <mxCell id="mvPRQSf64imPqvwauddo-60" value="" style="ellipse;whiteSpace=wrap;html=1;aspect=fixed;fillColor=#FFFFFF;" vertex="1" parent="1">
          <mxGeometry x="253" y="710" width="14" height="14" as="geometry" />
        </mxCell>
        <mxCell id="mvPRQSf64imPqvwauddo-61" style="edgeStyle=orthogonalEdgeStyle;rounded=0;orthogonalLoop=1;jettySize=auto;html=1;exitX=0.5;exitY=1;exitDx=0;exitDy=0;entryX=0.496;entryY=-0.153;entryDx=0;entryDy=0;entryPerimeter=0;endArrow=none;startFill=0;" edge="1" parent="1" source="mvPRQSf64imPqvwauddo-48">
          <mxGeometry relative="1" as="geometry">
            <mxPoint x="259.91" y="596.0699999999998" as="sourcePoint" />
            <mxPoint x="259.8540000000001" y="709.928" as="targetPoint" />
          </mxGeometry>
        </mxCell>
        <mxCell id="mvPRQSf64imPqvwauddo-62" value="Code_Careplan" style="text;html=1;align=center;verticalAlign=middle;resizable=0;points=[];autosize=1;strokeColor=none;fillColor=none;" vertex="1" parent="1">
          <mxGeometry x="267" y="702" width="110" height="30" as="geometry" />
        </mxCell>
        <mxCell id="mvPRQSf64imPqvwauddo-63" style="edgeStyle=orthogonalEdgeStyle;rounded=0;orthogonalLoop=1;jettySize=auto;html=1;exitX=0.5;exitY=0;exitDx=0;exitDy=0;entryX=0.5;entryY=1;entryDx=0;entryDy=0;endArrow=none;startFill=0;" edge="1" parent="1" source="mvPRQSf64imPqvwauddo-64" target="mvPRQSf64imPqvwauddo-60">
          <mxGeometry relative="1" as="geometry" />
        </mxCell>
        <mxCell id="mvPRQSf64imPqvwauddo-64" value="" style="ellipse;whiteSpace=wrap;html=1;aspect=fixed;fillColor=#FFFFFF;" vertex="1" parent="1">
          <mxGeometry x="253" y="750" width="14" height="14" as="geometry" />
        </mxCell>
        <mxCell id="mvPRQSf64imPqvwauddo-65" value="Description" style="text;html=1;align=center;verticalAlign=middle;resizable=0;points=[];autosize=1;strokeColor=none;fillColor=none;" vertex="1" parent="1">
          <mxGeometry x="267" y="742" width="80" height="30" as="geometry" />
        </mxCell>
        <mxCell id="mvPRQSf64imPqvwauddo-66" value="Code_Condition" style="text;html=1;align=center;verticalAlign=middle;resizable=0;points=[];autosize=1;strokeColor=none;fillColor=none;" vertex="1" parent="1">
          <mxGeometry x="115" y="594" width="110" height="30" as="geometry" />
        </mxCell>
        <mxCell id="mvPRQSf64imPqvwauddo-67" style="edgeStyle=orthogonalEdgeStyle;rounded=0;orthogonalLoop=1;jettySize=auto;html=1;entryX=0;entryY=0.5;entryDx=0;entryDy=0;endArrow=none;startFill=0;" edge="1" parent="1" source="mvPRQSf64imPqvwauddo-68" target="mvPRQSf64imPqvwauddo-59">
          <mxGeometry relative="1" as="geometry" />
        </mxCell>
        <mxCell id="mvPRQSf64imPqvwauddo-68" value="" style="ellipse;whiteSpace=wrap;html=1;aspect=fixed;fillColor=#FFFFFF;" vertex="1" parent="1">
          <mxGeometry x="93" y="580" width="14" height="14" as="geometry" />
        </mxCell>
        <mxCell id="mvPRQSf64imPqvwauddo-69" value="Description" style="text;html=1;align=center;verticalAlign=middle;resizable=0;points=[];autosize=1;strokeColor=none;fillColor=none;" vertex="1" parent="1">
          <mxGeometry x="60" y="550" width="80" height="30" as="geometry" />
        </mxCell>
        <mxCell id="mvPRQSf64imPqvwauddo-70" value="Id_Encounter" style="text;html=1;align=center;verticalAlign=middle;resizable=0;points=[];autosize=1;strokeColor=none;fillColor=none;" vertex="1" parent="1">
          <mxGeometry x="346" y="550" width="90" height="30" as="geometry" />
        </mxCell>
        <mxCell id="mvPRQSf64imPqvwauddo-71" style="edgeStyle=orthogonalEdgeStyle;rounded=0;orthogonalLoop=1;jettySize=auto;html=1;exitX=1;exitY=0.5;exitDx=0;exitDy=0;entryX=0;entryY=0.5;entryDx=0;entryDy=0;endArrow=none;startFill=0;endFill=1;" edge="1" parent="1" source="mvPRQSf64imPqvwauddo-73" target="mvPRQSf64imPqvwauddo-76">
          <mxGeometry relative="1" as="geometry" />
        </mxCell>
        <mxCell id="mvPRQSf64imPqvwauddo-72" style="edgeStyle=orthogonalEdgeStyle;rounded=0;orthogonalLoop=1;jettySize=auto;html=1;exitX=0.5;exitY=1;exitDx=0;exitDy=0;entryX=0.5;entryY=0;entryDx=0;entryDy=0;curved=1;endArrow=none;startFill=0;" edge="1" parent="1" source="mvPRQSf64imPqvwauddo-73" target="mvPRQSf64imPqvwauddo-77">
          <mxGeometry relative="1" as="geometry" />
        </mxCell>
        <mxCell id="mvPRQSf64imPqvwauddo-73" value="" style="ellipse;whiteSpace=wrap;html=1;aspect=fixed;fillColor=#FFFFFF;" vertex="1" parent="1">
          <mxGeometry x="626" y="594" width="14" height="14" as="geometry" />
        </mxCell>
        <mxCell id="mvPRQSf64imPqvwauddo-74" value="Id_Organization" style="text;html=1;align=center;verticalAlign=middle;resizable=0;points=[];autosize=1;strokeColor=none;fillColor=none;" vertex="1" parent="1">
          <mxGeometry x="516" y="578" width="110" height="30" as="geometry" />
        </mxCell>
        <mxCell id="mvPRQSf64imPqvwauddo-76" value="" style="ellipse;whiteSpace=wrap;html=1;aspect=fixed;fillColor=#FFFFFF;" vertex="1" parent="1">
          <mxGeometry x="711" y="594" width="14" height="14" as="geometry" />
        </mxCell>
        <mxCell id="mvPRQSf64imPqvwauddo-77" value="" style="ellipse;whiteSpace=wrap;html=1;aspect=fixed;fillColor=#FFFFFF;" vertex="1" parent="1">
          <mxGeometry x="603" y="670" width="14" height="14" as="geometry" />
        </mxCell>
        <mxCell id="mvPRQSf64imPqvwauddo-78" value="Name" style="text;html=1;align=center;verticalAlign=middle;resizable=0;points=[];autosize=1;strokeColor=none;fillColor=none;" vertex="1" parent="1">
          <mxGeometry x="553" y="660" width="60" height="30" as="geometry" />
        </mxCell>
        <mxCell id="mvPRQSf64imPqvwauddo-80" style="edgeStyle=orthogonalEdgeStyle;rounded=0;orthogonalLoop=1;jettySize=auto;html=1;entryX=0.5;entryY=1;entryDx=0;entryDy=0;endArrow=none;startFill=0;" edge="1" parent="1" source="mvPRQSf64imPqvwauddo-81" target="mvPRQSf64imPqvwauddo-76">
          <mxGeometry relative="1" as="geometry" />
        </mxCell>
        <mxCell id="mvPRQSf64imPqvwauddo-81" value="" style="ellipse;whiteSpace=wrap;html=1;aspect=fixed;fillColor=#FFFFFF;" vertex="1" parent="1">
          <mxGeometry x="711" y="630" width="14" height="14" as="geometry" />
        </mxCell>
        <mxCell id="mvPRQSf64imPqvwauddo-82" value="Name" style="text;html=1;align=center;verticalAlign=middle;resizable=0;points=[];autosize=1;strokeColor=none;fillColor=none;" vertex="1" parent="1">
          <mxGeometry x="688" y="638" width="60" height="30" as="geometry" />
        </mxCell>
        <mxCell id="mvPRQSf64imPqvwauddo-91" value="Id_State" style="text;html=1;align=center;verticalAlign=middle;resizable=0;points=[];autosize=1;strokeColor=none;fillColor=none;" vertex="1" parent="1">
          <mxGeometry x="683" y="566" width="70" height="30" as="geometry" />
        </mxCell>
        <mxCell id="mvPRQSf64imPqvwauddo-94" style="edgeStyle=orthogonalEdgeStyle;rounded=0;orthogonalLoop=1;jettySize=auto;html=1;exitX=0;exitY=0.5;exitDx=0;exitDy=0;entryX=1;entryY=0.5;entryDx=0;entryDy=0;endArrow=none;startFill=0;curved=1;" edge="1" parent="1" source="mvPRQSf64imPqvwauddo-95" target="mvPRQSf64imPqvwauddo-51">
          <mxGeometry relative="1" as="geometry" />
        </mxCell>
        <mxCell id="mvPRQSf64imPqvwauddo-95" value="" style="ellipse;whiteSpace=wrap;html=1;aspect=fixed;fillColor=#FFFFFF;" vertex="1" parent="1">
          <mxGeometry x="623" y="516" width="14" height="14" as="geometry" />
        </mxCell>
        <mxCell id="mvPRQSf64imPqvwauddo-96" style="edgeStyle=orthogonalEdgeStyle;rounded=0;orthogonalLoop=1;jettySize=auto;html=1;exitX=0.5;exitY=1;exitDx=0;exitDy=0;entryX=0.5;entryY=0;entryDx=0;entryDy=0;endArrow=none;startFill=0;curved=1;" edge="1" parent="1" source="mvPRQSf64imPqvwauddo-97" target="mvPRQSf64imPqvwauddo-51">
          <mxGeometry relative="1" as="geometry" />
        </mxCell>
        <mxCell id="mvPRQSf64imPqvwauddo-97" value="" style="ellipse;whiteSpace=wrap;html=1;aspect=fixed;fillColor=#FFFFFF;" vertex="1" parent="1">
          <mxGeometry x="488" y="470" width="14" height="14" as="geometry" />
        </mxCell>
        <mxCell id="mvPRQSf64imPqvwauddo-98" value="Gender" style="text;html=1;align=center;verticalAlign=middle;resizable=0;points=[];autosize=1;strokeColor=none;fillColor=none;" vertex="1" parent="1">
          <mxGeometry x="486" y="440" width="60" height="30" as="geometry" />
        </mxCell>
        <mxCell id="mvPRQSf64imPqvwauddo-99" value="Birthdate" style="text;html=1;align=center;verticalAlign=middle;resizable=0;points=[];autosize=1;strokeColor=none;fillColor=none;" vertex="1" parent="1">
          <mxGeometry x="570" y="490" width="70" height="30" as="geometry" />
        </mxCell>
      </root>
    </mxGraphModel>
  </diagram>
</mxfile>
